<?xml version="1.0" standalone="no"?>
<!DOCTYPE svg PUBLIC "-//W3C//DTD SVG 20010904//EN"
 "http://www.w3.org/TR/2001/REC-SVG-20010904/DTD/svg10.dtd">
<svg version="1.0" xmlns="http://www.w3.org/2000/svg"
 width="260.000000pt" height="260.000000pt" viewBox="0 0 260.000000 260.000000"
 preserveAspectRatio="xMidYMid meet">
<metadata>
Created by potrace 1.14, written by Peter Selinger 2001-2017
</metadata>
<g transform="translate(0.000000,260.000000) scale(0.100000,-0.100000)"
fill="#000000" stroke="none">
<path d="M0 2031 l0 -569 163 1 162 2 1 400 c1 220 2 402 3 405 1 3 73 5 161
5 l160 -1 0 163 0 163 -325 0 -325 0 0 -569z"/>
<path d="M1950 2437 l0 -163 160 1 c101 0 160 -4 161 -10 1 -5 2 -188 3 -405
l1 -395 160 0 160 0 3 568 2 567 -325 0 -325 0 0 -163z"/>
<path d="M978 2263 c-4 -7 -3 -1902 1 -1927 0 -5 71 61 157 147 85 86 159 157
163 157 4 0 78 -70 163 -155 86 -85 158 -155 160 -155 2 0 3 436 3 970 0 534
-1 970 -3 970 -2 0 -75 -71 -163 -158 l-159 -159 -159 159 c-88 87 -161 155
-163 151z"/>
<path d="M6 1132 c-4 -3 -6 -259 -6 -569 l0 -563 325 0 325 0 0 163 0 163
-162 0 -163 -1 0 406 0 407 -157 0 c-86 0 -159 -3 -162 -6z"/>
<path d="M2278 1127 c-3 -7 -4 -189 -4 -404 1 -254 -3 -394 -9 -396 -5 -2 -79
-3 -162 -2 l-153 0 0 -162 0 -163 325 0 325 0 0 568 0 569 -159 1 c-113 0
-161 -3 -163 -11z"/>
</g>
</svg>
